HIERARCHY
ROOT Hips
{
	OFFSET 0.000000 0.000000 0.000000
	CHANNELS 6 Xposition Yposition Zposition Zrotation Yrotation Xrotation 
	JOINT LowerBack
	{
		OFFSET 0.000000 0.000000 0.000000
		CHANNELS 3 Zrotation Yrotation Xrotation
		JOINT Spine
		{
			OFFSET 0.028270 2.035590 -0.193380
			CHANNELS 3 Zrotation Yrotation Xrotation
			JOINT Spine1
			{
				OFFSET 0.056720 2.048850 -0.042750
				CHANNELS 3 Zrotation Yrotation Xrotation
				JOINT Neck
				{
					OFFSET 0.000000 0.000000 0.000000
					CHANNELS 3 Zrotation Yrotation Xrotation
					JOINT Neck1
					{
						OFFSET -0.054170 1.746240 0.172020
						CHANNELS 3 Zrotation Yrotation Xrotation
						JOINT Head
						{
							OFFSET 0.104070 1.761360 -0.123970
							CHANNELS 3 Zrotation Yrotation Xrotation
							End Site
							{
								OFFSET 0.000000 0.000000 0.000000
							}
						}
					}
				}
				JOINT LeftShoulder
				{
					OFFSET 0.000000 0.000000 0.000000
					CHANNELS 3 Zrotation Yrotation Xrotation
					JOINT LeftArm
					{
						OFFSET 3.362410 1.200890 -0.311210
						CHANNELS 3 Zrotation Yrotation Xrotation
						JOINT LeftForeArm
						{
							OFFSET 4.983000 -0.000000 -0.000000
							CHANNELS 3 Zrotation Yrotation Xrotation
							JOINT LeftHand
							{
								OFFSET 3.483560 -0.000000 -0.000000
								CHANNELS 3 Zrotation Yrotation Xrotation
								JOINT LeftFingerBase
								{
									OFFSET 0.000000 0.000000 0.000000
									CHANNELS 3 Zrotation Yrotation Xrotation
									JOINT LeftHandIndex1
									{
										OFFSET 0.715260 -0.000000 -0.000000
										CHANNELS 3 Zrotation Yrotation Xrotation
										End Site
										{
											OFFSET 0.000000 0.000000 0.000000
										}
									}
								}
								JOINT LThumb
								{
									OFFSET 0.000000 0.000000 0.000000
									CHANNELS 3 Zrotation Yrotation Xrotation
									End Site
									{
										OFFSET 0.000000 0.000000 0.000000
									}
								}
							}
						}
					}
				}
				JOINT RightShoulder
				{
					OFFSET 0.000000 0.000000 0.000000
					CHANNELS 3 Zrotation Yrotation Xrotation
					JOINT RightArm
					{
						OFFSET -3.136600 1.374050 -0.404650
						CHANNELS 3 Zrotation Yrotation Xrotation
						JOINT RightForeArm
						{
							OFFSET -5.241900 -0.000000 -0.000000
							CHANNELS 3 Zrotation Yrotation Xrotation
							JOINT RightHand
							{
								OFFSET -3.444170 -0.000000 -0.000000
								CHANNELS 3 Zrotation Yrotation Xrotation
								JOINT RightFingerBase
								{
									OFFSET 0.000000 0.000000 0.000000
									CHANNELS 3 Zrotation Yrotation Xrotation
									JOINT RightHandIndex1
									{
										OFFSET -0.622530 -0.000000 -0.000000
										CHANNELS 3 Zrotation Yrotation Xrotation
										End Site
										{
											OFFSET 0.000000 0.000000 0.000000
										}
									}
								}
								JOINT RThumb
								{
									OFFSET 0.000000 0.000000 0.000000
									CHANNELS 3 Zrotation Yrotation Xrotation
									End Site
									{
										OFFSET 0.000000 0.000000 0.000000
									}
								}
							}
						}
					}
				}
			}
		}
	}
}
}
MOTION
Frames: 17
Frame Time: 0.008333
-2.818209 18.002137 -0.602940 -131.338573 88.416530 -128.687179 -0.598375 2.183760 -4.176366 -0.418355 2.102580 -2.938782 -3.622409 2.014720 3.355836 7.133462 -14.768038 -10.024104 -0.083013 0.026959 -0.595664 0.000000 0.000000 0.000000 -5.211972 31.576055 1.122637 -78.208028 34.854694 -0.382683 -4.131687 -20.704904 -0.017967 -2.482662 6.306004 -0.134263 -0.103875 -0.144754 -0.000000 0.000000 0.000000 0.000000 0.000000 0.000000 0.000000 2.424732 -9.084322 0.112250 46.930384 9.261679 5.451313 2.113564 42.235216 0.003350 3.052165 -1.552650 -0.037928 0.067721 -0.079696 0.000000 0.000000 0.000000 0.000000 0.000000 0.000000 0.000000 
-2.603832 18.033849 -0.643399 -125.594722 88.110641 -123.337620 -0.249847 2.208763 -4.071527 -0.337120 2.107201 -2.907372 -3.584442 2.022640 3.371999 7.018129 -15.019830 -9.974377 -0.028476 0.030720 -0.583821 0.000000 0.000000 0.000000 -5.205599 31.850157 1.117063 -78.487526 35.659624 -0.535856 -4.166489 -21.182322 -0.020347 -3.115987 6.802358 -0.183391 -0.101026 -0.148221 -0.000000 0.000000 0.000000 0.000000 0.000000 0.000000 0.000000 2.207299 -9.377548 0.079998 46.674349 9.158340 5.537488 2.081107 42.465153 0.003486 3.181814 -1.579867 -0.040447 0.064568 -0.078613 0.000000 0.000000 0.000000 0.000000 0.000000 0.000000 0.000000 
-2.392710 18.053927 -0.683433 -123.779153 87.809446 -121.917784 0.056895 2.192591 -3.907163 -0.260503 2.076408 -2.866256 -3.545300 1.994655 3.383877 6.913061 -15.268161 -9.948122 0.017509 0.034262 -0.578758 0.000000 0.000000 0.000000 -5.220624 32.067038 1.127176 -78.809090 36.342502 -0.606306 -4.195118 -21.609903 -0.022830 -3.770774 7.357670 -0.241523 -0.097379 -0.152022 -0.000000 0.000000 0.000000 0.000000 0.000000 0.000000 0.000000 2.034370 -9.676033 0.047990 46.457296 9.048191 5.602740 2.048320 42.712281 0.003638 3.253873 -1.551086 -0.040564 0.061925 -0.078331 0.000000 0.000000 0.000000 0.000000 0.000000 0.000000 0.000000 
-2.184749 18.062291 -0.723101 -123.854132 87.502166 -122.381026 0.350300 2.140512 -3.693702 -0.183966 2.013126 -2.817142 -3.506315 1.933935 3.392355 6.817606 -15.507415 -9.942705 0.054294 0.037464 -0.579653 0.000000 0.000000 0.000000 -5.261612 32.224845 1.150747 -79.173691 36.896774 -0.623864 -4.216096 -21.966832 -0.025214 -4.409525 7.918104 -0.305156 -0.093215 -0.155803 -0.000000 0.000000 0.000000 0.000000 0.000000 0.000000 0.000000 1.904853 -9.973577 0.016522 46.277379 8.928698 5.653120 2.017113 42.963016 0.003793 3.276786 -1.474786 -0.038780 0.059839 -0.078628 0.000000 0.000000 0.000000 0.000000 0.000000 0.000000 0.000000 
-1.979716 18.058916 -0.762470 -124.799423 87.184850 -123.697403 0.642028 2.058182 -3.443570 -0.106351 1.921743 -2.762309 -3.468683 1.844920 3.398108 6.732242 -15.731899 -9.955057 0.081561 0.040231 -0.585579 0.000000 0.000000 0.000000 -5.328273 32.321886 1.185494 -79.583136 37.323607 -0.616647 -4.228311 -22.242864 -0.027330 -4.998453 8.441084 -0.369885 -0.088823 -0.159247 -0.000000 0.000000 0.000000 0.000000 0.000000 0.000000 0.000000 1.817456 -10.263606 -0.013801 46.137307 8.796984 5.690258 1.989565 43.201901 0.003933 3.261371 -1.363917 -0.035491 0.058326 -0.079254 0.000000 0.000000 0.000000 0.000000 0.000000 0.000000 0.000000 
-1.777342 18.043783 -0.801539 -126.036890 86.856761 -125.279107 0.938778 1.950942 -3.169673 -0.027354 1.806582 -2.704257 -3.433636 1.731898 3.401572 6.658277 -15.936592 -9.982486 0.099286 0.042500 -0.595716 0.000000 0.000000 0.000000 -5.418196 32.357650 1.229344 -80.037689 37.629314 -0.605604 -4.230769 -22.438820 -0.029063 -5.510719 8.898948 -0.430813 -0.084442 -0.162123 -0.000000 0.000000 0.000000 0.000000 0.000000 0.000000 0.000000 1.770749 -10.539931 -0.042080 46.041930 8.650184 5.712208 1.967744 43.415019 0.004046 3.221108 -1.234312 -0.031504 0.057366 -0.079945 0.000000 0.000000 0.000000 0.000000 0.000000 0.000000 0.000000 
-1.577338 18.016916 -0.840369 -127.229913 86.519936 -126.779854 1.244004 1.824042 -2.884909 0.052719 1.672040 -2.645581 -3.402704 1.599210 3.402919 6.597621 -16.116980 -10.022937 0.107623 0.044234 -0.609419 0.000000 0.000000 0.000000 -5.527855 32.333655 1.280453 -80.534338 37.824024 -0.601476 -4.222641 -22.565495 -0.030349 -5.928905 9.280018 -0.484135 -0.080236 -0.164311 -0.000000 0.000000 0.000000 0.000000 0.000000 0.000000 0.000000 1.763535 -10.796276 -0.067219 45.996372 8.484366 5.713905 1.953476 43.592045 0.004124 3.170146 -1.101836 -0.027415 0.056909 -0.080464 0.000000 0.000000 0.000000 0.000000 0.000000 0.000000 0.000000 
-1.379476 17.978340 -0.878907 -128.202050 86.180981 -128.014936 1.557464 1.682498 -2.600182 0.132850 1.522596 -2.588557 -3.377731 1.451302 3.402122 6.553338 -16.269457 -10.075390 0.106770 0.045416 -0.626327 0.000000 0.000000 0.000000 -5.653631 32.254055 1.337202 -81.065900 37.917491 -0.603956 -4.203322 -22.640667 -0.031184 -6.245892 9.587394 -0.527552 -0.076281 -0.165812 -0.000000 0.000000 0.000000 0.000000 0.000000 0.000000 0.000000 1.796195 -11.026412 -0.088079 46.005219 8.294869 5.687850 1.948199 43.727658 0.004169 3.121319 -0.979222 -0.023624 0.056886 -0.080647 0.000000 0.000000 0.000000 0.000000 0.000000 0.000000 0.000000 
-1.183679 17.928080 -0.916877 -128.964421 85.856943 -128.989981 1.865735 1.530125 -2.321253 0.209290 1.362666 -2.534300 -3.360957 1.292656 3.399580 6.531558 -16.394481 -10.140957 0.096907 0.046074 -0.646697 0.000000 0.000000 0.000000 -5.790069 32.126789 1.398229 -81.620854 37.913820 -0.602886 -4.172784 -22.683720 -0.031610 -6.464582 9.835757 -0.560564 -0.072580 -0.166743 -0.000000 0.000000 0.000000 0.000000 0.000000 0.000000 0.000000 1.874914 -11.227623 -0.103439 46.070350 8.083826 5.630098 1.952894 43.818159 0.004187 3.082092 -0.873209 -0.020532 0.057263 -0.080431 0.000000 0.000000 0.000000 0.000000 0.000000 0.000000 0.000000 
-0.989773 17.866261 -0.954109 -129.441248 85.555871 -129.620611 2.167108 1.372111 -2.057365 0.280872 1.196991 -2.484877 -3.354724 1.128037 3.394755 6.535450 -16.485967 -10.219833 0.077941 0.046183 -0.670461 0.000000 0.000000 0.000000 -5.933932 31.959179 1.462542 -82.184073 37.819090 -0.582954 -4.131425 -22.715036 -0.031698 -6.597008 10.046664 -0.584671 -0.069075 -0.167241 -0.000000 0.000000 0.000000 0.000000 0.000000 0.000000 0.000000 2.000590 -11.389436 -0.112540 46.196266 7.837864 5.526341 1.968101 43.869339 0.004190 3.059700 -0.786133 -0.018138 0.057974 -0.079851 0.000000 0.000000 0.000000 0.000000 0.000000 0.000000 0.000000 
-0.797863 17.793135 -0.989998 -129.780790 85.300745 -130.052351 2.436299 1.211015 -1.809068 0.341593 1.029704 -2.440360 -3.361796 0.961759 3.387885 6.573107 -16.544113 -10.314266 0.049579 0.045753 -0.698185 0.000000 0.000000 0.000000 -6.077464 31.761315 1.529161 -82.736486 37.628020 -0.524469 -4.080637 -22.747879 -0.031542 -6.660878 10.243911 -0.602177 -0.065689 -0.167509 -0.000000 0.000000 0.000000 0.000000 0.000000 0.000000 0.000000 2.183783 -11.508043 -0.114934 46.385281 7.556739 5.370753 1.993795 43.882972 0.004192 3.049093 -0.709085 -0.016042 0.059070 -0.079102 0.000000 0.000000 0.000000 0.000000 0.000000 0.000000 0.000000 
-0.608141 17.709055 -1.023949 -130.018221 85.104026 -130.319121 2.660565 1.049963 -1.574941 0.388404 0.864708 -2.400545 -3.384580 0.797907 3.378864 6.649484 -16.567633 -10.425950 0.011485 0.044779 -0.730291 0.000000 0.000000 0.000000 -6.214402 31.541893 1.597381 -83.258577 37.331671 -0.409452 -4.022258 -22.788317 -0.031230 -6.678085 10.449455 -0.616083 -0.062325 -0.167686 -0.000000 0.000000 0.000000 0.000000 0.000000 0.000000 0.000000 2.430332 -11.578041 -0.110634 46.642120 7.234766 5.154363 2.029574 43.861749 0.004211 3.038773 -0.626266 -0.013842 0.060653 -0.078481 0.000000 0.000000 0.000000 0.000000 0.000000 0.000000 0.000000 
-0.420904 17.614665 -1.055106 -130.289077 84.980946 -130.557587 2.817059 0.890232 -1.350407 0.416405 0.704873 -2.364549 -3.425353 0.639565 3.367742 6.770353 -16.555980 -10.556113 -0.036916 0.043233 -0.767106 0.000000 0.000000 0.000000 -6.334791 31.307920 1.666545 -83.730253 36.915200 -0.225046 -3.959004 -22.833208 -0.030841 -6.670956 10.679495 -0.629188 -0.058923 -0.167869 -0.000000 0.000000 0.000000 0.000000 0.000000 0.000000 0.000000 2.748282 -11.595810 -0.100317 46.974512 6.869565 4.870246 2.074675 43.802600 0.004270 3.006550 -0.513971 -0.010838 0.062934 -0.078384 0.000000 0.000000 0.000000 0.000000 0.000000 0.000000 0.000000 
-0.236572 17.510908 -1.082549 -130.726661 84.940314 -130.905152 2.886308 0.732059 -1.128559 0.421789 0.551916 -2.331059 -3.485728 0.488642 3.354548 6.939321 -16.509737 -10.704913 -0.096122 0.041079 -0.808720 0.000000 0.000000 0.000000 -6.426255 31.062850 1.736142 -84.133562 36.360100 0.033964 -3.894195 -22.869931 -0.030436 -6.660377 10.940737 -0.643695 -0.055478 -0.168052 -0.000000 0.000000 0.000000 0.000000 0.000000 0.000000 0.000000 3.142586 -11.560203 -0.085227 47.394993 6.459989 4.511899 2.128086 43.696110 0.004385 2.921617 -0.343936 -0.006229 0.066207 -0.079244 0.000000 0.000000 0.000000 0.000000 0.000000 0.000000 0.000000 
-0.055584 17.399027 -1.105314 -131.485626 84.983546 -131.522618 2.852772 0.574582 -0.901513 0.401962 0.406241 -2.298595 -3.566377 0.345695 3.339300 7.157140 -16.429698 -10.871040 -0.166386 0.038283 -0.854882 0.000000 0.000000 0.000000 -6.473933 30.806270 1.805864 -84.454740 35.647266 0.362448 -3.831513 -22.880066 -0.030053 -6.662028 11.229595 -0.661102 -0.052071 -0.168116 -0.000000 0.000000 0.000000 0.000000 0.000000 0.000000 0.000000 3.613389 -11.472025 -0.066998 47.921301 6.006480 4.072508 2.188726 43.524175 0.004577 2.747314 -0.086472 0.000290 0.070814 -0.081473 0.000000 0.000000 0.000000 0.000000 0.000000 0.000000 0.000000 
0.121587 17.280602 -1.122714 -132.715631 85.100108 -132.565804 2.712262 0.416478 -0.663021 0.357009 0.266982 -2.266106 -3.666742 0.209921 3.321610 7.419143 -16.314249 -11.050753 -0.247657 0.034792 -0.904739 0.000000 0.000000 0.000000 -6.463595 30.532802 1.875544 -84.684725 34.760595 0.745592 -3.774549 -22.843418 -0.029708 -6.684286 11.531704 -0.681310 -0.048876 -0.167828 -0.000000 0.000000 0.000000 0.000000 0.000000 0.000000 0.000000 4.151719 -11.331469 -0.047615 48.577990 5.505764 3.538879 2.255517 43.262531 0.004860 2.445854 0.285500 0.008117 0.077071 -0.085389 0.000000 0.000000 0.000000 0.000000 0.000000 0.000000 0.000000 
0.294537 17.157544 -1.133853 -134.697946 85.275599 -134.326500 2.454046 0.254282 -0.405817 0.286130 0.131621 -2.231687 -3.785086 0.078867 3.303249 7.722013 -16.175763 -11.241039 -0.338648 0.030687 -0.957734 0.000000 0.000000 0.000000 -6.372199 30.237959 1.944572 -84.820486 33.683229 1.159995 -3.727326 -22.735547 -0.029405 -6.723878 11.822846 -0.702818 -0.046215 -0.166901 -0.000000 0.000000 0.000000 0.000000 0.000000 0.000000 0.000000 4.750413 -11.156577 -0.028924 49.388749 4.978481 2.917693 2.327309 42.868585 0.005235 1.973862 0.797731 0.015154 0.085306 -0.091148 0.000000 0.000000 0.000000 0.000000 0.000000 0.000000 0.000000 
